<?xml version="1.0" encoding="UTF-8" standalone="no"?>
<svg
   width="57"
   height="15"
   viewBox="0 0 57 15"
   version="1.1"
   id="svg1"
   sodipodi:docname="logo-roma-white.svg"
   inkscape:version="1.3 (0e150ed6c4, 2023-07-21)"
   xmlns:inkscape="http://www.inkscape.org/namespaces/inkscape"
   xmlns:sodipodi="http://sodipodi.sourceforge.net/DTD/sodipodi-0.dtd"
   xmlns="http://www.w3.org/2000/svg"
   xmlns:svg="http://www.w3.org/2000/svg">
  <defs
     id="defs1">
    <clipPath
       clipPathUnits="userSpaceOnUse"
       id="clipPath33-7">
      <path
         d="M 0,0 H 792 V 612 H 0 Z"
         transform="translate(-313.75911,-359.71261)"
         id="path33-6" />
    </clipPath>
    <clipPath
       clipPathUnits="userSpaceOnUse"
       id="clipPath35-3">
      <path
         d="M 0,0 H 792 V 612 H 0 Z"
         transform="translate(-362.84001,-343.55041)"
         id="path35-5" />
    </clipPath>
    <clipPath
       clipPathUnits="userSpaceOnUse"
       id="clipPath37-6">
      <path
         d="M 0,0 H 792 V 612 H 0 Z"
         transform="translate(-384.26631,-343.55331)"
         id="path37-6" />
    </clipPath>
    <clipPath
       clipPathUnits="userSpaceOnUse"
       id="clipPath39-9">
      <path
         d="M 0,0 H 792 V 612 H 0 Z"
         transform="translate(-427.11811,-343.55271)"
         id="path39-7" />
    </clipPath>
    <clipPath
       clipPathUnits="userSpaceOnUse"
       id="clipPath41-1">
      <path
         d="M 0,0 H 792 V 612 H 0 Z"
         transform="translate(-444.70441,-352.58561)"
         id="path41-5" />
    </clipPath>
    <clipPath
       clipPathUnits="userSpaceOnUse"
       id="clipPath43-9">
      <path
         d="M 0,0 H 792 V 612 H 0 Z"
         transform="translate(-341.41411,-343.55821)"
         id="path43-1" />
    </clipPath>
    <clipPath
       clipPathUnits="userSpaceOnUse"
       id="clipPath45-1">
      <path
         d="M 0,0 H 792 V 612 H 0 Z"
         transform="translate(-398.01241,-343.55191)"
         id="path45-2" />
    </clipPath>
    <clipPath
       clipPathUnits="userSpaceOnUse"
       id="clipPath47-0">
      <path
         d="M 0,0 H 792 V 612 H 0 Z"
         transform="translate(-316.14861,-339.74991)"
         id="path47-6" />
    </clipPath>
    <clipPath
       clipPathUnits="userSpaceOnUse"
       id="clipPath49-9">
      <path
         d="M 0,0 H 792 V 612 H 0 Z"
         transform="translate(-352.09191,-307.64291)"
         id="path49-7" />
    </clipPath>
    <clipPath
       clipPathUnits="userSpaceOnUse"
       id="clipPath51-3">
      <path
         d="M 0,0 H 792 V 612 H 0 Z"
         transform="translate(-403.82091,-308.05241)"
         id="path51-8" />
    </clipPath>
    <clipPath
       clipPathUnits="userSpaceOnUse"
       id="clipPath53-5">
      <path
         d="M 0,0 H 792 V 612 H 0 Z"
         transform="translate(-343.54931,-305.92141)"
         id="path53-1" />
    </clipPath>
    <clipPath
       clipPathUnits="userSpaceOnUse"
       id="clipPath55-6">
      <path
         d="M 0,0 H 792 V 612 H 0 Z"
         transform="translate(-344.16741,-306.81931)"
         id="path55-8" />
    </clipPath>
    <clipPath
       clipPathUnits="userSpaceOnUse"
       id="clipPath58-3">
      <path
         d="M 0,0 H 792 V 612 H 0 Z"
         id="path58-7" />
    </clipPath>
    <clipPath
       clipPathUnits="userSpaceOnUse"
       id="clipPath60">
      <path
         d="M 0,0 H 792 V 612 H 0 Z"
         transform="translate(-329.12451,-329.85421)"
         id="path60-9" />
    </clipPath>
    <clipPath
       clipPathUnits="userSpaceOnUse"
       id="clipPath64-3">
      <path
         d="M 0,0 H 792 V 612 H 0 Z"
         transform="translate(-404.11671,-319.43291)"
         id="path64-5" />
    </clipPath>
    <clipPath
       clipPathUnits="userSpaceOnUse"
       id="clipPath66-1">
      <path
         d="M 0,0 H 792 V 612 H 0 Z"
         transform="translate(-431.62561,-315.52481)"
         id="path66-7" />
    </clipPath>
  </defs>
  <sodipodi:namedview
     id="namedview1"
     pagecolor="#ffffff"
     bordercolor="#000000"
     borderopacity="0.25"
     inkscape:showpageshadow="2"
     inkscape:pageopacity="0.0"
     inkscape:pagecheckerboard="0"
     inkscape:deskcolor="#d1d1d1"
     inkscape:zoom="5.6798246"
     inkscape:cx="14.172973"
     inkscape:cy="30.194595"
     inkscape:window-width="1920"
     inkscape:window-height="1009"
     inkscape:window-x="-8"
     inkscape:window-y="-8"
     inkscape:window-maximized="1"
     inkscape:current-layer="svg1" />
  <path
     id="path32-0"
     d="m 0,0 c 0.383,-0.098 0.772,-0.083 1.141,0.044 l 64.82,23.137 c 0.472,0.169 0.989,0.169 1.461,0 L 132.196,0.065 c 1.015,-0.348 2.129,0.186 2.481,1.191 0.353,1.006 -0.187,2.109 -1.201,2.457 L 67.331,27.311 c -0.412,0.142 -0.866,0.142 -1.28,-0.001 L -0.14,3.692 C -1.292,3.296 -1.832,1.929 -1.149,0.834 -0.892,0.422 -0.474,0.121 0,0"
     style="fill:#ebebef;fill-opacity:1;fill-rule:nonzero;stroke:none"
     transform="matrix(0.16993232,0,0,-0.16993232,0.64262589,5.0374767)"
     clip-path="url(#clipPath33-7)" />
  <path
     id="path34-8"
     d="m 0,0 v 20.243 c 0,2.1 -1.719,3.803 -3.84,3.803 v 0 0 c -1.175,0 -2.225,-0.524 -2.929,-1.347 C -7.336,22.036 -7.68,21.18 -7.68,20.243 V 0 c 0,-2.1 1.72,-3.803 3.84,-3.803 C -1.719,-3.803 0,-2.1 0,0"
     style="fill:#ebebef;fill-opacity:1;fill-rule:nonzero;stroke:none"
     transform="matrix(0.16993232,0,0,-0.16993232,8.9830577,7.7839572)"
     clip-path="url(#clipPath35-3)" />
  <path
     id="path36-3"
     d="m 0,0 v 27.892 c 0,0.001 0,0.002 0,0.003 0,2.1 -1.719,3.803 -3.84,3.803 v 0 0 c -2.121,0 -3.84,-1.703 -3.84,-3.803 V 0 c 0,-2.101 1.719,-3.804 3.84,-3.804 C -1.719,-3.804 0,-2.101 0,0"
     style="fill:#ebebef;fill-opacity:1;fill-rule:nonzero;stroke:none"
     transform="matrix(0.16993232,0,0,-0.16993232,12.624079,7.7834644)"
     clip-path="url(#clipPath37-6)" />
  <path
     id="path38-5"
     d="m 0,0 v 12.636 c 0,2.1 -1.719,3.803 -3.84,3.803 -2.121,0 -3.84,-1.703 -3.84,-3.803 V 0 c 0,-2.101 1.719,-3.803 3.84,-3.803 C -1.719,-3.803 0,-2.101 0,0"
     style="fill:#ebebef;fill-opacity:1;fill-rule:nonzero;stroke:none"
     transform="matrix(0.16993232,0,0,-0.16993232,19.905984,7.7835661)"
     clip-path="url(#clipPath39-9)" />
  <path
     id="path40-2"
     d="M 0,0 C -2.121,0 -3.84,-1.703 -3.84,-3.803 V -9.02 c 0,-2.1 1.719,-3.803 3.84,-3.803 2.121,0 3.84,1.703 3.84,3.803 v 5.217 C 3.84,-1.703 2.121,0 0,0"
     style="fill:#ebebef;fill-opacity:1;fill-rule:nonzero;stroke:none"
     transform="matrix(0.16993232,0,0,-0.16993232,22.894465,6.2485854)"
     clip-path="url(#clipPath41-1)" />
  <path
     id="path42-4"
     d="m 0,0 v 12.636 c 0,0.653 -0.167,1.268 -0.46,1.805 -0.001,0.002 -0.002,0.005 -0.003,0.008 -0.651,1.186 -1.919,1.99 -3.377,1.99 v 0 0 c -1.041,0 -1.984,-0.412 -2.676,-1.079 -0.012,-0.012 -0.026,-0.022 -0.039,-0.035 -0.112,-0.111 -0.214,-0.231 -0.311,-0.354 -0.13,-0.165 -0.249,-0.338 -0.35,-0.522 -10e-4,-0.003 -0.003,-0.006 -0.004,-0.008 -0.105,-0.192 -0.191,-0.395 -0.262,-0.606 -0.033,-0.1 -0.061,-0.203 -0.087,-0.306 -0.07,-0.287 -0.11,-0.585 -0.11,-0.893 L -7.679,0 c 0,-2.101 1.719,-3.803 3.839,-3.803 C -1.719,-3.803 0,-2.101 0,0"
     style="fill:#ebebef;fill-opacity:1;fill-rule:nonzero;stroke:none"
     transform="matrix(0.16993232,0,0,-0.16993232,5.3421041,7.782632)"
     clip-path="url(#clipPath43-9)" />
  <path
     id="path44-5"
     d="m 0,0 c 0,-2.101 1.719,-3.803 3.84,-3.803 2.12,0 3.839,1.702 3.839,3.803 v 20.243 0 0 c 0,1.238 -0.6,2.335 -1.525,3.029 C 5.51,23.756 4.71,24.046 3.84,24.046 v 0 0 C 1.719,24.046 0,22.343 0,20.243 v 0 0 z"
     style="fill:#ebebef;fill-opacity:1;fill-rule:nonzero;stroke:none"
     transform="matrix(0.16993232,0,0,-0.16993232,14.959985,7.7837022)"
     clip-path="url(#clipPath45-1)" />
  <path
     id="path46-3"
     d="m 0,0 c 2.121,0 3.84,1.703 3.84,3.803 v 5.217 0 c 0,2.101 -1.719,3.804 -3.84,3.804 -2.12,0 -3.84,-1.703 -3.84,-3.804 v 0 -5.217 C -3.84,1.703 -2.121,0 0,0"
     style="fill:#ebebef;fill-opacity:1;fill-rule:nonzero;stroke:none"
     transform="matrix(0.16993232,0,0,-0.16993232,1.0486793,8.4297848)"
     clip-path="url(#clipPath47-0)" />
  <path
     id="path48-9"
     d="M 0,0 C -0.087,0.104 -0.203,0.191 -0.348,0.26 -0.501,0.327 -0.681,0.363 -0.89,0.368 -1.095,0.363 -1.272,0.327 -1.42,0.26 -1.57,0.191 -1.691,0.104 -1.783,0 c -0.114,-0.109 -0.189,-0.249 -0.226,-0.42 -0.042,-0.181 -0.063,-0.52 -0.063,-1.018 0,-0.498 0.021,-0.834 0.063,-1.01 0.037,-0.176 0.112,-0.318 0.226,-0.427 0.092,-0.104 0.213,-0.189 0.363,-0.254 0.148,-0.076 0.325,-0.114 0.53,-0.114 0.209,0 0.389,0.038 0.542,0.114 0.145,0.065 0.261,0.15 0.348,0.254 0.113,0.109 0.191,0.251 0.233,0.427 0.04,0.176 0.06,0.512 0.06,1.01 0,0.498 -0.02,0.837 -0.06,1.018 C 0.191,-0.249 0.113,-0.109 0,0"
     style="fill:#ebebef;fill-opacity:1;fill-rule:nonzero;stroke:none"
     transform="matrix(0.16993232,0,0,-0.16993232,7.1566078,13.885803)"
     clip-path="url(#clipPath49-9)" />
  <path
     id="path50-4"
     d="M 0,0 C -0.529,-0.009 -0.799,-0.267 -0.81,-0.774 V -2.92 c 0.011,-0.512 0.281,-0.77 0.81,-0.774 0.526,0.004 0.797,0.262 0.813,0.774 v 2.146 C 0.797,-0.267 0.526,-0.009 0,0"
     style="fill:#ebebef;fill-opacity:1;fill-rule:nonzero;stroke:none"
     transform="matrix(0.16993232,0,0,-0.16993232,15.947038,13.816215)"
     clip-path="url(#clipPath51-3)" />
  <path
     id="path52-51"
     d="M 0,0 H -1.345 V -1.521 H 0 c 0.324,0.004 0.562,0.082 0.712,0.232 0.15,0.148 0.226,0.324 0.226,0.528 0,0.208 -0.076,0.387 -0.226,0.535 C 0.562,-0.08 0.324,-0.005 0,0"
     style="fill:#ebebef;fill-opacity:1;fill-rule:nonzero;stroke:none"
     transform="matrix(0.16993232,0,0,-0.16993232,5.7049433,14.178341)"
     clip-path="url(#clipPath53-5)" />
  <path
     id="path54-4"
     d="M 0,0 C 0.153,0.135 0.229,0.304 0.229,0.508 0.229,0.713 0.153,0.886 0,1.027 -0.15,1.16 -0.385,1.228 -0.703,1.233 h -1.261 v -1.452 h 1.261 C -0.385,-0.219 -0.15,-0.146 0,0"
     style="fill:#ebebef;fill-opacity:1;fill-rule:nonzero;stroke:none"
     transform="matrix(0.16993232,0,0,-0.16993232,5.8099795,14.025759)"
     clip-path="url(#clipPath55-6)" />
  <path
     id="path56-2"
     d="m 12.660562,13.876456 -0.141554,0.37555 h 0.285828 l -0.141554,-0.37555 z"
     style="fill:#ebebef;fill-opacity:1;fill-rule:nonzero;stroke:none;stroke-width:0.169932" />
  <path
     id="path57-5"
     d="m 312.309,302.363 h 136.235 v 7.607 H 312.309 Z m 32.583,1.715 c -0.303,-0.266 -0.681,-0.398 -1.134,-0.398 h -2.426 v 5.051 h 2.231 c 0.566,-0.004 0.991,-0.129 1.275,-0.374 0.287,-0.247 0.431,-0.574 0.431,-0.981 0.005,-0.208 -0.051,-0.407 -0.17,-0.595 -0.061,-0.09 -0.147,-0.176 -0.26,-0.257 -0.114,-0.086 -0.253,-0.163 -0.419,-0.232 v -0.014 c 0.314,-0.071 0.552,-0.216 0.713,-0.433 0.15,-0.224 0.225,-0.468 0.225,-0.731 -0.005,-0.437 -0.16,-0.782 -0.466,-1.036 m 8.313,0.956 c -0.037,-0.203 -0.104,-0.366 -0.202,-0.488 -0.134,-0.234 -0.352,-0.439 -0.655,-0.617 -0.305,-0.185 -0.686,-0.282 -1.144,-0.291 -0.452,0.009 -0.83,0.106 -1.132,0.291 -0.308,0.178 -0.532,0.383 -0.671,0.617 -0.042,0.076 -0.08,0.149 -0.114,0.218 -0.032,0.071 -0.058,0.162 -0.079,0.27 -0.04,0.204 -0.059,0.594 -0.059,1.171 0,0.588 0.019,0.982 0.059,1.18 0.042,0.2 0.106,0.36 0.193,0.484 0.14,0.232 0.363,0.439 0.671,0.621 0.302,0.184 0.68,0.278 1.132,0.283 0.458,-0.005 0.839,-0.1 1.145,-0.284 0.302,-0.183 0.52,-0.391 0.655,-0.624 0.097,-0.123 0.164,-0.283 0.201,-0.482 0.034,-0.198 0.051,-0.591 0.051,-1.178 0,-0.577 -0.017,-0.967 -0.051,-1.171 m 7.828,-1.354 h -3.677 v 5.051 h 0.871 V 304.4 h 2.806 z m 4.758,0 h -0.871 v 5.051 h 0.871 z m 6.176,0 h -0.678 l -1.896,5.051 h 0.923 l 1.304,-3.848 h 0.016 l 1.309,3.848 h 0.922 z m 6.46,0 h -0.871 v 5.051 h 0.871 z m 7.597,0 -0.446,1.13 h -2.182 l -0.443,-1.13 h -0.923 l 2.092,5.051 h 0.73 l 2.092,-5.051 z m 12.472,0.72 v -0.72 h -3.284 v 0.679 l 2.252,2.471 c 0.087,0.1 0.147,0.192 0.178,0.278 0.021,0.081 0.032,0.157 0.032,0.229 0,0.19 -0.067,0.356 -0.202,0.497 -0.14,0.141 -0.338,0.213 -0.594,0.218 -0.227,0 -0.416,-0.063 -0.566,-0.191 -0.156,-0.127 -0.248,-0.306 -0.277,-0.538 h -0.823 c 0.021,0.42 0.182,0.767 0.483,1.041 0.303,0.268 0.675,0.404 1.118,0.409 0.495,-0.005 0.897,-0.144 1.205,-0.417 0.314,-0.27 0.473,-0.614 0.478,-1.029 0,-0.333 -0.115,-0.629 -0.347,-0.888 l -1.853,-2.039 z m 6.961,0.693 c -0.011,-0.465 -0.175,-0.822 -0.494,-1.074 -0.314,-0.249 -0.694,-0.377 -1.142,-0.381 -0.435,0.004 -0.809,0.132 -1.122,0.381 -0.335,0.251 -0.505,0.608 -0.51,1.072 v 2.232 c 0.005,0.466 0.175,0.825 0.51,1.076 0.313,0.249 0.687,0.374 1.122,0.374 0.448,0 0.828,-0.125 1.142,-0.375 0.319,-0.251 0.483,-0.611 0.494,-1.077 z m 6.895,-0.693 v -0.72 h -3.284 v 0.679 l 2.251,2.471 c 0.087,0.1 0.147,0.192 0.179,0.278 0.021,0.081 0.031,0.157 0.031,0.229 0,0.19 -0.067,0.356 -0.202,0.497 -0.14,0.141 -0.338,0.213 -0.594,0.218 -0.227,0 -0.415,-0.063 -0.566,-0.191 -0.156,-0.127 -0.248,-0.306 -0.277,-0.538 h -0.822 c 0.021,0.42 0.181,0.767 0.482,1.041 0.303,0.268 0.675,0.404 1.118,0.409 0.495,-0.005 0.897,-0.144 1.205,-0.417 0.314,-0.27 0.473,-0.614 0.479,-1.029 0,-0.333 -0.116,-0.629 -0.348,-0.888 l -1.853,-2.039 z m 7.169,0.032 h -0.462 v -0.752 h -0.822 v 0.751 l -2.4,0.001 v 0.678 l 1.923,3.621 h 0.917 l -1.944,-3.621 h 1.504 v 1.455 h 0.822 v -1.455 h 0.462 z"
     style="fill:#ebebef;fill-opacity:1;fill-rule:nonzero;stroke:none"
     transform="matrix(0.16993232,0,0,-0.16993232,-52.675192,66.164279)"
     clip-path="url(#clipPath58-3)" />
  <path
     id="path59-8"
     d="m 0,0 c 1.706,0 3.229,-0.93 4.068,-2.313 l 1.943,1.383 c 0.945,0.664 1.89,1.275 1.706,1.196 -1.68,2.552 -4.462,4.2 -7.717,4.2 -5.118,0 -9.213,-4.227 -9.213,-9.411 0,-5.158 4.095,-9.384 9.213,-9.384 3.255,0 6.011,1.648 7.691,4.2 L 4.095,-7.577 C 3.229,-8.959 1.759,-9.863 0,-9.863 c -2.677,0 -4.777,2.18 -4.777,4.918 C -4.777,-2.206 -2.677,0 0,0"
     style="fill:#ebebef;fill-opacity:1;fill-rule:nonzero;stroke:none"
     transform="matrix(0.16993232,0,0,-0.16993232,3.2537045,10.111385)"
     clip-path="url(#clipPath60)" />
  <path
     id="path61-0"
     d="M 8.5435945,10.052672 V 9.3931648 H 6.5497788 V 12.505815 H 8.5836987 V 11.846139 H 7.2947623 V 11.295048 H 8.3920149 V 10.648965 H 7.2947623 v -0.596293 z"
     style="fill:#ebebef;fill-opacity:1;fill-rule:nonzero;stroke:none;stroke-width:0.169932" />
  <path
     id="path62-4"
     d="m 10.555441,9.3930807 v 3.1126503 h 0.744813 v -1.698644 l 0.941255,1.698644 H 12.89269 V 9.3930807 H 12.147876 V 11.069123 L 11.228882,9.3930807 Z"
     style="fill:#ebebef;fill-opacity:1;fill-rule:nonzero;stroke:none;stroke-width:0.169932" />
  <path
     id="path63-00"
     d="m 0,0 c -1.549,0 -2.152,0.797 -2.231,1.781 h -4.436 c 0,-3.482 2.599,-5.689 6.667,-5.689 3.045,0 6.693,1.542 6.693,5.583 0,1.303 -0.262,4.094 -5.013,5.583 l -2.074,0.665 c -1.575,0.478 -1.68,1.116 -1.68,1.488 0,0.878 0.735,1.462 1.916,1.462 1.339,0 1.89,-0.717 1.89,-1.701 h 4.384 c 0,3.615 -2.651,5.716 -6.221,5.716 -3.648,0 -6.326,-2.287 -6.326,-5.61 0,-1.701 0.683,-4.28 4.725,-5.396 L 0.42,3.164 C 2.231,2.526 2.231,1.941 2.231,1.649 2.231,0.479 1.155,0 0,0"
     style="fill:#ebebef;fill-opacity:1;fill-rule:nonzero;stroke:none"
     transform="matrix(0.16993232,0,0,-0.16993232,15.997304,11.882301)"
     clip-path="url(#clipPath64-3)" />
  <path
     id="path65-0"
     d="m 0,0 c 5.145,0 9.239,4.227 9.239,9.385 0,5.184 -4.094,9.411 -9.239,9.411 -5.118,0 -9.213,-4.227 -9.213,-9.411 C -9.213,4.227 -5.118,0 0,0 m 0,14.329 c 2.651,0 4.83,-2.206 4.83,-4.944 C 4.83,6.646 2.651,4.466 0,4.466 c -2.677,0 -4.777,2.18 -4.777,4.919 0,2.738 2.1,4.944 4.777,4.944"
     style="fill:#ebebef;fill-opacity:1;fill-rule:nonzero;stroke:none"
     transform="matrix(0.16993232,0,0,-0.16993232,20.671954,12.546414)"
     clip-path="url(#clipPath66-1)" />
</svg>
