<?xml version="1.0" encoding="UTF-8" standalone="no"?>
<svg
   width="48"
   height="50"
   viewBox="0 0 48 50"
   fill="none"
   version="1.1"
   id="svg799"
   sodipodi:docname="hyper.svg"
   inkscape:version="1.2.2 (732a01da63, 2022-12-09)"
   xmlns:inkscape="http://www.inkscape.org/namespaces/inkscape"
   xmlns:sodipodi="http://sodipodi.sourceforge.net/DTD/sodipodi-0.dtd"
   xmlns="http://www.w3.org/2000/svg"
   xmlns:svg="http://www.w3.org/2000/svg">
  <defs
     id="defs803">
    <clipPath
       clipPathUnits="userSpaceOnUse"
       id="clipPath270">
      <path
         d="M 395.203,391.804 265.691,345.149 c -2.256,-0.783 -3.311,-3.483 -1.976,-5.645 v 0 c 0.503,-0.815 1.321,-1.409 2.249,-1.649 v 0 c 0.089,-0.022 0.178,-0.042 0.267,-0.059 v 0 h 1.415 c 0.185,0.035 0.369,0.084 0.549,0.147 v 0 l 126.831,45.704 c 0.925,0.333 1.936,0.333 2.859,0 v 0 l 126.741,-45.663 c 0.277,-0.096 0.557,-0.158 0.836,-0.188 v 0 h 0.817 c 1.421,0.154 2.701,1.104 3.201,2.542 v 0 c 0.086,0.248 0.145,0.498 0.178,0.749 v 0 0.995 c -0.184,1.385 -1.123,2.621 -2.528,3.108 v 0 l -129.424,46.615 c -0.403,0.14 -0.826,0.21 -1.25,0.21 v 0 c -0.424,0 -0.848,-0.07 -1.253,-0.211"
         id="path268" />
    </clipPath>
    <linearGradient
       x1="0"
       y1="0"
       x2="1"
       y2="0"
       gradientUnits="userSpaceOnUse"
       gradientTransform="matrix(265.239,0,0,-265.239,263.659,393.037)"
       spreadMethod="pad"
       id="linearGradient296">
      <stop
         style="stop-opacity:1;stop-color:#29bdef"
         offset="0"
         id="stop276" />
      <stop
         style="stop-opacity:1;stop-color:#29bdef"
         offset="0.00199557"
         id="stop278" />
      <stop
         style="stop-opacity:1;stop-color:#243a85"
         offset="0.13606"
         id="stop280" />
      <stop
         style="stop-opacity:1;stop-color:#9b2f77"
         offset="0.338427"
         id="stop282" />
      <stop
         style="stop-opacity:1;stop-color:#e83b84"
         offset="0.441345"
         id="stop284" />
      <stop
         style="stop-opacity:1;stop-color:#d3043a"
         offset="0.640919"
         id="stop286" />
      <stop
         style="stop-opacity:1;stop-color:#fff03e"
         offset="0.795253"
         id="stop288" />
      <stop
         style="stop-opacity:1;stop-color:#5ea43e"
         offset="0.894584"
         id="stop290" />
      <stop
         style="stop-opacity:1;stop-color:#028c3c"
         offset="0.997022"
         id="stop292" />
      <stop
         style="stop-opacity:1;stop-color:#028c3c"
         offset="1"
         id="stop294" />
    </linearGradient>
    <clipPath
       clipPathUnits="userSpaceOnUse"
       id="clipPath306">
      <path
         d="m 388.895,361.037 v -55.103 c 0,-4.149 3.364,-7.513 7.513,-7.513 v 0 c 4.15,0 7.514,3.364 7.514,7.513 v 0 55.103 c 0,4.15 -3.364,7.513 -7.514,7.513 v 0 c -4.149,0 -7.513,-3.363 -7.513,-7.513 m 41.923,-15.118 v -39.987 c 0,-4.149 3.364,-7.514 7.513,-7.514 v 0 c 4.149,0 7.513,3.365 7.513,7.514 v 0 39.987 c 0,4.149 -3.364,7.514 -7.513,7.514 v 0 c -4.149,0 -7.513,-3.365 -7.513,-7.514 m -83.846,-0.003 v -39.987 c 0,-4.149 3.364,-7.513 7.514,-7.513 v 0 c 4.149,0 7.512,3.364 7.512,7.513 v 0 39.987 c 0,4.15 -3.363,7.514 -7.512,7.514 v 0 c -4.15,0 -7.514,-3.364 -7.514,-7.514 m -41.923,-15.011 v -24.961 c 0,-4.149 3.364,-7.513 7.513,-7.513 v 0 c 4.15,0 7.513,3.364 7.513,7.513 v 0 24.961 c 0,4.149 -3.363,7.513 -7.513,7.513 v 0 c -4.149,0 -7.513,-3.364 -7.513,-7.513 m 167.692,-0.011 v -24.961 c 0,-4.15 3.363,-7.513 7.513,-7.513 v 0 c 4.149,0 7.514,3.363 7.514,7.513 v 0 24.961 c 0,4.149 -3.365,7.513 -7.514,7.513 v 0 c -4.15,0 -7.513,-3.364 -7.513,-7.513 m 41.924,-14.63 V 305.96 c 0,-4.15 3.363,-7.515 7.512,-7.515 v 0 c 3.91,0 7.122,2.987 7.481,6.803 v 0 11.727 c -0.359,3.816 -3.571,6.802 -7.481,6.802 v 0 c -4.149,0 -7.512,-3.364 -7.512,-7.513 m -251.538,-0.025 v -10.304 c 0,-4.15 3.363,-7.514 7.512,-7.514 v 0 c 4.15,0 7.514,3.364 7.514,7.514 v 0 10.304 c 0,4.149 -3.364,7.514 -7.514,7.514 v 0 c -4.149,0 -7.512,-3.365 -7.512,-7.514"
         id="path304" />
    </clipPath>
    <linearGradient
       x1="0"
       y1="0"
       x2="1"
       y2="0"
       gradientUnits="userSpaceOnUse"
       gradientTransform="matrix(265.239,0,0,-265.239,263.659,369.502)"
       spreadMethod="pad"
       id="linearGradient332">
      <stop
         style="stop-opacity:1;stop-color:#29bdef"
         offset="0"
         id="stop312" />
      <stop
         style="stop-opacity:1;stop-color:#29bdef"
         offset="0.00199557"
         id="stop314" />
      <stop
         style="stop-opacity:1;stop-color:#243a85"
         offset="0.13655"
         id="stop316" />
      <stop
         style="stop-opacity:1;stop-color:#9b2f77"
         offset="0.338427"
         id="stop318" />
      <stop
         style="stop-opacity:1;stop-color:#e83b84"
         offset="0.441345"
         id="stop320" />
      <stop
         style="stop-opacity:1;stop-color:#d3043a"
         offset="0.640919"
         id="stop322" />
      <stop
         style="stop-opacity:1;stop-color:#fff03e"
         offset="0.795253"
         id="stop324" />
      <stop
         style="stop-opacity:1;stop-color:#5ea43e"
         offset="0.894584"
         id="stop326" />
      <stop
         style="stop-opacity:1;stop-color:#028c3c"
         offset="0.997022"
         id="stop328" />
      <stop
         style="stop-opacity:1;stop-color:#028c3c"
         offset="1"
         id="stop330" />
    </linearGradient>
    <clipPath
       clipPathUnits="userSpaceOnUse"
       id="clipPath342">
      <path
         d="M 0,0 H 792 V 612 H 0 Z"
         id="path340" />
    </clipPath>
    <clipPath
       clipPathUnits="userSpaceOnUse"
       id="clipPath382">
      <path
         d="M 0,0 H 792 V 612 H 0 Z"
         id="path380" />
    </clipPath>
    <clipPath
       clipPathUnits="userSpaceOnUse"
       id="clipPath420">
      <path
         d="M 0,0 H 792 V 612 H 0 Z"
         id="path418" />
    </clipPath>
  </defs>
  <sodipodi:namedview
     id="namedview801"
     pagecolor="#ffffff"
     bordercolor="#000000"
     borderopacity="0.25"
     inkscape:showpageshadow="2"
     inkscape:pageopacity="0.0"
     inkscape:pagecheckerboard="0"
     inkscape:deskcolor="#d1d1d1"
     showgrid="false"
     inkscape:zoom="11.836968"
     inkscape:cx="26.864989"
     inkscape:cy="21.880604"
     inkscape:window-width="1920"
     inkscape:window-height="1017"
     inkscape:window-x="1912"
     inkscape:window-y="418"
     inkscape:window-maximized="1"
     inkscape:current-layer="svg799" />
  <g
     id="g264"
     transform="matrix(0.17891426,0,0,-0.17891426,-46.869483,89.704231)">
    <g
       id="g266"
       clip-path="url(#clipPath270)">
      <g
         id="g272">
        <g
           id="g274">
          <path
             d="M 395.203,391.804 265.691,345.149 c -2.256,-0.783 -3.311,-3.483 -1.976,-5.645 v 0 c 0.503,-0.815 1.321,-1.409 2.249,-1.649 v 0 c 0.089,-0.022 0.178,-0.042 0.267,-0.059 v 0 h 1.415 c 0.185,0.035 0.369,0.084 0.549,0.147 v 0 l 126.831,45.704 c 0.925,0.333 1.936,0.333 2.859,0 v 0 l 126.741,-45.663 c 0.277,-0.096 0.557,-0.158 0.836,-0.188 v 0 h 0.817 c 1.421,0.154 2.701,1.104 3.201,2.542 v 0 c 0.086,0.248 0.145,0.498 0.178,0.749 v 0 0.995 c -0.184,1.385 -1.123,2.621 -2.528,3.108 v 0 l -129.424,46.615 c -0.403,0.14 -0.826,0.21 -1.25,0.21 v 0 c -0.424,0 -0.848,-0.07 -1.253,-0.211"
             style="fill:url(#linearGradient296);stroke:none"
             id="path298" />
        </g>
      </g>
    </g>
  </g>
  <g
     id="g300"
     transform="matrix(0.17891426,0,0,-0.17891426,-46.869483,89.704231)">
    <g
       id="g302"
       clip-path="url(#clipPath306)">
      <g
         id="g308">
        <g
           id="g310">
          <path
             d="m 388.895,361.037 v -55.103 c 0,-4.149 3.364,-7.513 7.513,-7.513 v 0 c 4.15,0 7.514,3.364 7.514,7.513 v 0 55.103 c 0,4.15 -3.364,7.513 -7.514,7.513 v 0 c -4.149,0 -7.513,-3.363 -7.513,-7.513 m 41.923,-15.118 v -39.987 c 0,-4.149 3.364,-7.514 7.513,-7.514 v 0 c 4.149,0 7.513,3.365 7.513,7.514 v 0 39.987 c 0,4.149 -3.364,7.514 -7.513,7.514 v 0 c -4.149,0 -7.513,-3.365 -7.513,-7.514 m -83.846,-0.003 v -39.987 c 0,-4.149 3.364,-7.513 7.514,-7.513 v 0 c 4.149,0 7.512,3.364 7.512,7.513 v 0 39.987 c 0,4.15 -3.363,7.514 -7.512,7.514 v 0 c -4.15,0 -7.514,-3.364 -7.514,-7.514 m -41.923,-15.011 v -24.961 c 0,-4.149 3.364,-7.513 7.513,-7.513 v 0 c 4.15,0 7.513,3.364 7.513,7.513 v 0 24.961 c 0,4.149 -3.363,7.513 -7.513,7.513 v 0 c -4.149,0 -7.513,-3.364 -7.513,-7.513 m 167.692,-0.011 v -24.961 c 0,-4.15 3.363,-7.513 7.513,-7.513 v 0 c 4.149,0 7.514,3.363 7.514,7.513 v 0 24.961 c 0,4.149 -3.365,7.513 -7.514,7.513 v 0 c -4.15,0 -7.513,-3.364 -7.513,-7.513 m 41.924,-14.63 V 305.96 c 0,-4.15 3.363,-7.515 7.512,-7.515 v 0 c 3.91,0 7.122,2.987 7.481,6.803 v 0 11.727 c -0.359,3.816 -3.571,6.802 -7.481,6.802 v 0 c -4.149,0 -7.512,-3.364 -7.512,-7.513 m -251.538,-0.025 v -10.304 c 0,-4.15 3.363,-7.514 7.512,-7.514 v 0 c 4.15,0 7.514,3.364 7.514,7.514 v 0 10.304 c 0,4.149 -3.364,7.514 -7.514,7.514 v 0 c -4.149,0 -7.512,-3.365 -7.512,-7.514"
             style="fill:url(#linearGradient332);stroke:none"
             id="path334" />
        </g>
      </g>
    </g>
  </g>
  <g
     id="g336"
     transform="matrix(0.17891426,0,0,-0.17891426,-46.869483,89.704231)">
    <g
       id="g338"
       clip-path="url(#clipPath342)">
      <g
         id="g344"
         transform="translate(514.665,316.262)">
        <path
           d="m 0,0 c 0,4.149 3.364,7.513 7.513,7.513 4.149,0 7.513,-3.364 7.513,-7.513 0,-4.149 -3.364,-7.513 -7.513,-7.513 C 3.364,-7.513 0,-4.149 0,0"
           style="fill:#077144;fill-opacity:1;fill-rule:nonzero;stroke:none"
           id="path346" />
      </g>
      <g
         id="g348"
         transform="translate(472.741,330.891)">
        <path
           d="m 0,0 c 0,4.149 3.364,7.513 7.513,7.513 4.149,0 7.513,-3.364 7.513,-7.513 0,-4.149 -3.364,-7.513 -7.513,-7.513 C 3.364,-7.513 0,-4.149 0,0"
           style="fill:#a5c715;fill-opacity:1;fill-rule:nonzero;stroke:none"
           id="path350" />
      </g>
      <g
         id="g352"
         transform="translate(430.818,345.919)">
        <path
           d="m 0,0 c 0,4.149 3.364,7.513 7.513,7.513 4.149,0 7.513,-3.364 7.513,-7.513 0,-4.149 -3.364,-7.513 -7.513,-7.513 C 3.364,-7.513 0,-4.149 0,0"
           style="fill:#9f1d18;fill-opacity:1;fill-rule:nonzero;stroke:none"
           id="path354" />
      </g>
      <g
         id="g356"
         transform="translate(388.896,361.037)">
        <path
           d="m 0,0 c 0,4.149 3.364,7.513 7.513,7.513 4.149,0 7.513,-3.364 7.513,-7.513 0,-4.149 -3.364,-7.513 -7.513,-7.513 C 3.364,-7.513 0,-4.149 0,0"
           style="fill:#a41568;fill-opacity:1;fill-rule:nonzero;stroke:none"
           id="path358" />
      </g>
      <g
         id="g360"
         transform="translate(346.972,345.917)">
        <path
           d="m 0,0 c 0,4.149 3.364,7.513 7.513,7.513 4.149,0 7.513,-3.364 7.513,-7.513 0,-4.149 -3.364,-7.513 -7.513,-7.513 C 3.364,-7.513 0,-4.149 0,0"
           style="fill:#4e2056;fill-opacity:1;fill-rule:nonzero;stroke:none"
           id="path362" />
      </g>
      <g
         id="g364"
         transform="translate(305.049,330.905)">
        <path
           d="m 0,0 c 0,4.149 3.364,7.513 7.513,7.513 4.149,0 7.513,-3.364 7.513,-7.513 0,-4.149 -3.364,-7.513 -7.513,-7.513 C 3.364,-7.513 0,-4.149 0,0"
           style="fill:#202e57;fill-opacity:1;fill-rule:nonzero;stroke:none"
           id="path366" />
      </g>
      <g
         id="g368"
         transform="translate(263.127,316.24)">
        <path
           d="m 0,0 c 0,4.149 3.364,7.513 7.513,7.513 4.149,0 7.513,-3.364 7.513,-7.513 0,-4.149 -3.364,-7.513 -7.513,-7.513 C 3.364,-7.513 0,-4.149 0,0"
           style="fill:#0e5292;fill-opacity:1;fill-rule:nonzero;stroke:none"
           id="path370" />
      </g>
    </g>
  </g>
  <g
     id="g372"
     transform="matrix(0.17891426,0,0,-0.17891426,25.473067,47.640411)">
    <path
       d="M 0,0 -1.63,-4.366 H 1.661 L 0.031,0 Z"
       style="fill:#203478;fill-opacity:1;fill-rule:nonzero;stroke:none"
       id="path374" />
  </g>
  <g
     id="g376"
     transform="matrix(0.17891426,0,0,-0.17891426,-46.869483,89.704231)">
    <g
       id="g378"
       clip-path="url(#clipPath382)">
      <g
         id="g384"
         transform="translate(442.183,235.807)">
        <path
           d="m 0,0 c -1.035,-0.018 -1.563,-0.529 -1.584,-1.53 v -4.238 c 0.021,-1.011 0.549,-1.52 1.584,-1.53 1.03,0.01 1.56,0.519 1.591,1.53 V -1.53 C 1.56,-0.529 1.03,-0.018 0,0"
           style="fill:#203478;fill-opacity:1;fill-rule:nonzero;stroke:none"
           id="path386" />
      </g>
      <g
         id="g388"
         transform="translate(340.968,234.997)">
        <path
           d="M 0,0 C -0.17,0.206 -0.397,0.377 -0.681,0.514 -0.98,0.647 -1.333,0.718 -1.741,0.726 -2.143,0.718 -2.489,0.647 -2.778,0.514 -3.072,0.377 -3.309,0.206 -3.489,0 -3.711,-0.215 -3.858,-0.492 -3.93,-0.83 c -0.083,-0.357 -0.124,-1.027 -0.124,-2.01 0,-0.983 0.041,-1.648 0.124,-1.996 0.072,-0.347 0.219,-0.628 0.441,-0.844 0.18,-0.205 0.417,-0.372 0.711,-0.5 0.289,-0.151 0.635,-0.226 1.037,-0.226 0.408,0 0.761,0.075 1.06,0.226 0.284,0.128 0.511,0.295 0.681,0.5 0.222,0.216 0.374,0.497 0.457,0.844 0.077,0.348 0.115,1.013 0.115,1.996 0,0.983 -0.038,1.653 -0.115,2.01 C 0.374,-0.492 0.222,-0.215 0,0"
           style="fill:#203478;fill-opacity:1;fill-rule:nonzero;stroke:none"
           id="path390" />
      </g>
      <path
         d="m 263.127,224.567 h 266.564 v 15.026 H 263.127 Z m 63.754,3.388 c -0.593,-0.524 -1.333,-0.786 -2.219,-0.786 h -4.747 v 9.978 h 4.365 c 1.107,-0.009 1.939,-0.256 2.495,-0.739 0.562,-0.488 0.842,-1.134 0.842,-1.937 0.011,-0.41 -0.1,-0.803 -0.332,-1.177 -0.118,-0.178 -0.288,-0.347 -0.509,-0.506 -0.222,-0.17 -0.495,-0.322 -0.819,-0.459 v -0.028 c 0.614,-0.141 1.079,-0.426 1.394,-0.855 0.294,-0.443 0.442,-0.924 0.442,-1.444 -0.011,-0.863 -0.315,-1.545 -0.912,-2.047 m 16.264,1.89 c -0.072,-0.402 -0.203,-0.724 -0.394,-0.965 -0.262,-0.461 -0.689,-0.868 -1.281,-1.219 -0.597,-0.365 -1.344,-0.557 -2.239,-0.575 -0.885,0.018 -1.624,0.21 -2.216,0.575 -0.602,0.351 -1.039,0.758 -1.312,1.219 -0.082,0.15 -0.157,0.294 -0.224,0.43 -0.062,0.142 -0.113,0.32 -0.154,0.535 -0.078,0.401 -0.116,1.172 -0.116,2.312 0,1.162 0.038,1.939 0.116,2.332 0.082,0.394 0.208,0.711 0.378,0.954 0.273,0.459 0.71,0.868 1.312,1.227 0.592,0.364 1.331,0.55 2.216,0.56 0.896,-0.01 1.642,-0.197 2.239,-0.562 0.592,-0.361 1.019,-0.771 1.282,-1.232 0.19,-0.241 0.321,-0.559 0.393,-0.952 0.067,-0.392 0.1,-1.167 0.1,-2.327 0,-1.14 -0.033,-1.911 -0.1,-2.312 m 15.317,-2.676 h -7.195 v 9.978 h 1.705 v -8.555 h 5.49 z m 9.309,0 h -1.705 v 9.978 h 1.705 z m 12.086,0 h -1.327 l -3.71,9.978 h 1.805 l 2.553,-7.601 h 0.031 l 2.561,7.601 h 1.805 z m 12.639,0 h -1.705 v 9.978 h 1.705 z m 14.866,0 -0.873,2.232 h -4.271 l -0.865,-2.232 h -1.807 l 4.093,9.978 h 1.429 l 4.093,-9.978 z m 24.403,1.423 v -1.423 h -6.426 v 1.341 l 4.406,4.882 c 0.171,0.197 0.287,0.379 0.349,0.549 0.041,0.16 0.062,0.311 0.062,0.452 0,0.376 -0.132,0.703 -0.395,0.981 -0.274,0.279 -0.662,0.423 -1.162,0.433 -0.445,0 -0.814,-0.126 -1.108,-0.378 -0.305,-0.252 -0.485,-0.605 -0.542,-1.063 h -1.61 c 0.042,0.829 0.356,1.515 0.944,2.056 0.593,0.529 1.322,0.798 2.188,0.808 0.969,-0.01 1.755,-0.284 2.358,-0.823 0.614,-0.534 0.926,-1.212 0.936,-2.034 0,-0.658 -0.227,-1.242 -0.68,-1.754 l -3.625,-4.027 z m 13.619,1.369 c -0.021,-0.918 -0.343,-1.625 -0.966,-2.122 -0.614,-0.493 -1.359,-0.743 -2.235,-0.753 -0.85,0.01 -1.582,0.26 -2.196,0.752 -0.654,0.496 -0.987,1.202 -0.997,2.118 v 4.41 c 0.01,0.92 0.343,1.629 0.997,2.126 0.614,0.492 1.346,0.738 2.196,0.738 0.876,0 1.621,-0.247 2.235,-0.74 0.623,-0.497 0.945,-1.207 0.966,-2.129 z m 13.491,-1.369 v -1.423 h -6.426 v 1.341 l 4.406,4.882 c 0.17,0.197 0.286,0.379 0.349,0.549 0.041,0.16 0.062,0.311 0.062,0.452 0,0.376 -0.132,0.703 -0.396,0.981 -0.273,0.279 -0.661,0.423 -1.162,0.433 -0.444,0 -0.813,-0.126 -1.107,-0.378 -0.305,-0.252 -0.486,-0.605 -0.543,-1.063 h -1.609 c 0.041,0.829 0.356,1.515 0.943,2.056 0.593,0.529 1.322,0.798 2.189,0.808 0.969,-0.01 1.755,-0.284 2.358,-0.823 0.614,-0.534 0.925,-1.212 0.936,-2.034 0,-0.658 -0.227,-1.242 -0.68,-1.754 l -3.626,-4.027 z m 14.027,0.062 h -0.903 v -1.485 h -1.609 v 1.484 l -4.696,0.001 v 1.34 l 3.764,7.153 h 1.794 l -3.804,-7.153 h 2.942 v 2.874 h 1.609 v -2.874 h 0.903 z"
         style="fill:#203478;fill-opacity:1;fill-rule:nonzero;stroke:none"
         id="path392" />
      <g
         id="g394"
         transform="translate(325.462,233.371)">
        <path
           d="M 0,0 C 0.299,0.266 0.448,0.601 0.448,1.004 0.448,1.408 0.299,1.75 0,2.029 -0.294,2.291 -0.752,2.426 -1.376,2.436 h -2.466 v -2.869 h 2.466 c 0.624,0 1.082,0.144 1.376,0.433"
           style="fill:#203478;fill-opacity:1;fill-rule:nonzero;stroke:none"
           id="path396" />
      </g>
      <g
         id="g398"
         transform="translate(324.253,231.597)">
        <path
           d="M 0,0 H -2.632 V -3.006 H 0 c 0.635,0.009 1.099,0.163 1.393,0.46 0.294,0.293 0.442,0.641 0.442,1.043 0,0.411 -0.148,0.764 -0.442,1.057 C 1.099,-0.158 0.635,-0.01 0,0"
           style="fill:#203478;fill-opacity:1;fill-rule:nonzero;stroke:none"
           id="path400" />
      </g>
      <g
         id="g402"
         transform="translate(311.077,258.865)">
        <path
           d="m 0,0 c -3.287,-5.041 -8.679,-8.297 -15.048,-8.297 -10.015,0 -18.026,8.349 -18.026,18.538 0,10.24 8.011,18.59 18.026,18.59 6.369,0 11.813,-3.256 15.099,-8.297 0.36,0.157 -1.489,-1.05 -3.338,-2.363 l -3.8,-2.731 c -1.644,2.731 -4.622,4.569 -7.961,4.569 -5.238,0 -9.347,-4.359 -9.347,-9.768 0,-5.409 4.109,-9.716 9.347,-9.716 3.441,0 6.317,1.786 8.012,4.517 z"
           style="fill:#203478;fill-opacity:1;fill-rule:nonzero;stroke:none"
           id="path404" />
      </g>
    </g>
  </g>
  <g
     id="g406"
     transform="matrix(0.17891426,0,0,-0.17891426,12.884482,44.789591)">
    <path
       d="M 0,0 V 36.183 H 22.957 V 28.516 H 8.577 v -6.932 h 12.634 v -7.51 H 8.577 V 7.667 H 23.419 V 0 Z"
       style="fill:#203478;fill-opacity:1;fill-rule:nonzero;stroke:none"
       id="path408" />
  </g>
  <g
     id="g410"
     transform="matrix(0.17891426,0,0,-0.17891426,25.951125,38.315936)">
    <path
       d="m 0,0 v -36.183 h -7.498 l -10.837,19.746 v -19.746 h -8.576 V 0 h 7.754 l 10.58,-19.483 V 0 Z"
       style="fill:#203478;fill-opacity:1;fill-rule:nonzero;stroke:none"
       id="path412" />
  </g>
  <g
     id="g414"
     transform="matrix(0.17891426,0,0,-0.17891426,-46.869483,89.704231)">
    <g
       id="g416"
       clip-path="url(#clipPath420)">
      <g
         id="g422"
         transform="translate(438.396,261.806)">
        <path
           d="m 0,0 c 0.154,-1.943 1.335,-3.519 4.366,-3.519 2.259,0 4.365,0.946 4.365,3.257 0,0.577 0,1.732 -3.544,2.993 l -4.16,1.418 c -7.909,2.205 -9.244,7.299 -9.244,10.66 0,6.565 5.238,11.081 12.377,11.081 6.985,0 12.172,-4.149 12.172,-11.291 H 7.755 c 0,1.943 -1.079,3.361 -3.698,3.361 -2.311,0 -3.749,-1.155 -3.749,-2.888 0,-0.735 0.206,-1.996 3.287,-2.941 l 4.057,-1.313 c 9.296,-2.941 9.81,-8.455 9.81,-11.028 0,-7.982 -7.139,-11.028 -13.096,-11.028 -7.961,0 -13.045,4.359 -13.045,11.238 z"
           style="fill:#203478;fill-opacity:1;fill-rule:nonzero;stroke:none"
           id="path424" />
      </g>
      <g
         id="g426"
         transform="translate(496.587,287.696)">
        <path
           d="m 0,0 c 10.066,0 18.078,-8.35 18.078,-18.59 0,-10.189 -8.012,-18.539 -18.078,-18.539 -10.015,0 -18.026,8.35 -18.026,18.539 C -18.026,-8.35 -10.015,0 0,0 m 0,-28.306 c 5.187,0 9.45,4.307 9.45,9.716 0,5.409 -4.263,9.768 -9.45,9.768 -5.239,0 -9.347,-4.359 -9.347,-9.768 0,-5.409 4.108,-9.716 9.347,-9.716"
           style="fill:#203478;fill-opacity:1;fill-rule:nonzero;stroke:none"
           id="path428" />
      </g>
    </g>
  </g>
</svg>
